<?xml version="1.0" standalone="no"?>
<!DOCTYPE svg PUBLIC "-//W3C//DTD SVG 20010904//EN"
 "http://www.w3.org/TR/2001/REC-SVG-20010904/DTD/svg10.dtd">
<svg version="1.0" xmlns="http://www.w3.org/2000/svg"
 width="679.000000pt" height="169.000000pt" viewBox="0 0 679.000000 169.000000"
 preserveAspectRatio="xMidYMid meet">
<metadata>
Created by potrace 1.15, written by Peter Selinger 2001-2017
</metadata>
<g transform="translate(0.000000,169.000000) scale(0.100000,-0.100000)"
fill="#000000" stroke="none">
<path d="M80 880 l0 -761 303 3 302 3 65 32 c77 39 113 84 135 171 13 51 15
138 13 574 l-3 513 -30 60 c-35 70 -90 116 -168 142 -43 14 -102 18 -334 21
l-283 3 0 -761z m557 570 c71 -43 68 -18 68 -576 0 -494 0 -503 -21 -531 -38
-51 -64 -57 -244 -58 l-165 0 -3 593 -2 592 167 0 c149 0 172 -2 200 -20z"/>
<path d="M2774 951 c-82 -20 -149 -83 -180 -168 -18 -53 -18 -207 2 -272 19
-66 70 -122 136 -151 46 -20 64 -21 192 -18 155 4 177 10 236 70 57 57 70 98
70 233 0 105 -3 126 -24 170 -29 64 -82 110 -148 130 -54 16 -226 19 -284 6z
m284 -131 c46 -28 62 -73 62 -176 0 -157 -39 -193 -213 -194 -174 0 -207 31
-207 198 0 170 23 191 205 192 103 0 125 -3 153 -20z"/>
<path d="M3362 944 c-22 -15 -22 -17 -22 -305 l0 -289 55 0 55 0 2 204 3 204
199 -209 c166 -174 204 -209 227 -209 56 0 59 15 59 328 l0 283 -57 -3 -58 -3
-5 -204 -5 -204 -44 49 c-133 146 -360 374 -372 374 -8 0 -25 -7 -37 -16z"/>
<path d="M4790 940 c-19 -19 -20 -33 -20 -305 l0 -285 55 0 55 0 0 208 1 207
207 -213 c123 -127 214 -213 225 -212 10 0 27 5 38 10 18 10 19 24 19 305 l0
295 -55 0 -55 0 0 -207 0 -208 -208 213 c-116 120 -215 212 -224 212 -10 0
-27 -9 -38 -20z"/>
<path d="M1040 650 l0 -300 55 0 55 0 0 300 0 300 -55 0 -55 0 0 -300z"/>
<path d="M1365 938 c-154 -54 -151 -285 4 -337 19 -6 98 -11 181 -11 168 0
184 -6 184 -65 0 -63 -9 -65 -261 -65 l-223 0 0 -55 0 -55 238 0 c227 0 239 1
277 23 115 64 112 242 -5 307 -42 23 -56 25 -208 28 -160 4 -163 4 -179 29
-12 18 -14 31 -7 51 16 46 43 52 247 52 l188 0 -3 53 -3 52 -200 2 c-120 1
-212 -3 -230 -9z"/>
<path d="M2014 931 c-133 -60 -136 -252 -4 -318 40 -21 58 -23 201 -23 173 0
189 -6 189 -67 0 -60 -13 -63 -258 -63 l-222 0 0 -55 0 -55 229 0 c139 0 241
4 258 11 65 24 106 88 106 164 0 55 -18 98 -55 131 -47 44 -68 48 -240 52
-186 5 -191 7 -186 69 5 58 23 63 241 63 l187 0 0 55 0 55 -202 0 c-176 0
-208 -3 -244 -19z"/>
<path d="M4258 936 c-85 -23 -155 -88 -188 -174 -17 -46 -20 -76 -20 -232 l0
-180 55 0 55 0 0 70 0 70 190 0 190 0 0 -70 0 -70 55 0 55 0 0 284 c0 283 0
285 -22 300 -18 13 -52 16 -173 15 -87 0 -170 -6 -197 -13z m280 -213 l3 -113
-192 0 -192 0 6 55 c13 130 86 175 277 172 l95 -2 3 -112z"/>
<path d="M5595 943 c-38 -9 -84 -53 -95 -91 -7 -23 -10 -108 -8 -229 3 -188 3
-192 28 -218 49 -52 62 -55 295 -55 l215 0 0 55 0 55 -203 0 c-145 0 -206 3
-215 12 -15 15 -17 325 -2 348 8 12 45 16 215 18 l205 3 0 55 0 54 -207 -1
c-115 -1 -217 -4 -228 -6z"/>
<path d="M6150 930 c-19 -19 -20 -33 -20 -242 0 -250 5 -273 69 -315 33 -22
42 -23 257 -23 l224 0 0 55 0 55 -210 0 c-198 0 -210 1 -220 20 -6 12 -9 83
-8 187 l3 168 218 3 217 2 0 55 0 55 -255 0 c-242 0 -256 -1 -275 -20z"/>
<path d="M6287 704 c-4 -4 -7 -31 -7 -61 l0 -53 175 0 176 0 -3 58 -3 57 -166
3 c-91 1 -168 -1 -172 -4z"/>
</g>
</svg>
