<?xml version="1.0" standalone="no"?>
<!DOCTYPE svg PUBLIC "-//W3C//DTD SVG 20010904//EN"
 "http://www.w3.org/TR/2001/REC-SVG-20010904/DTD/svg10.dtd">
<svg version="1.0" xmlns="http://www.w3.org/2000/svg"
 width="215.000000pt" height="243.000000pt" viewBox="0 0 215.000000 243.000000"
 preserveAspectRatio="xMidYMid meet">
<metadata>
Created by potrace 1.15, written by Peter Selinger 2001-2017
</metadata>
<g transform="translate(0.000000,243.000000) scale(0.100000,-0.100000)"
fill="#000000" stroke="none">
<path d="M380 2342 c0 -5 43 -102 95 -216 52 -114 95 -209 95 -211 0 -3 -103
-5 -230 -5 l-230 0 0 -735 0 -735 359 0 359 0 108 -188 c59 -103 112 -192 118
-199 8 -9 40 38 126 188 l114 199 363 0 363 0 0 955 0 955 -820 0 c-451 0
-820 -4 -820 -8z m441 -973 c42 -21 86 -70 106 -116 17 -42 17 -134 0 -176
-65 -153 -262 -190 -381 -71 -125 126 -59 340 119 385 41 11 112 1 156 -22z
m699 1 c132 -68 167 -239 73 -349 -50 -59 -104 -84 -178 -84 -131 0 -228 97
-228 228 0 173 180 284 333 205z"/>
</g>
</svg>
